<?xml version="1.0" standalone="no"?>
<!DOCTYPE svg PUBLIC "-//W3C//DTD SVG 20010904//EN"
 "http://www.w3.org/TR/2001/REC-SVG-20010904/DTD/svg10.dtd">
<svg version="1.0" xmlns="http://www.w3.org/2000/svg"
 width="700.000000pt" height="700.000000pt" viewBox="0 0 700.000000 700.000000"
 preserveAspectRatio="xMidYMid meet">
<metadata>
Created by potrace 1.14, written by Peter Selinger 2001-2017
</metadata>
<g transform="translate(0.000000,700.000000) scale(0.100000,-0.100000)"
fill="#000000" stroke="none">
<path d="M3365 6111 c-490 -197 -1002 -404 -1040 -421 -11 -4 -65 -26 -120
-48 -129 -51 -1140 -460 -1180 -477 -16 -7 -115 -47 -220 -90 -334 -136 -358
-146 -444 -187 -165 -79 -265 -212 -327 -434 -26 -92 -28 -291 -5 -382 22 -84
61 -169 98 -212 l25 -30 -55 -112 c-31 -62 -58 -126 -62 -143 -3 -16 -12 -59
-20 -94 -13 -64 -13 -251 0 -321 17 -86 103 -270 127 -270 16 0 7 -29 -27 -86
-71 -117 -106 -248 -111 -409 -6 -213 49 -372 170 -490 67 -66 113 -91 246
-137 162 -55 1149 -366 1485 -468 33 -10 128 -39 210 -65 83 -26 206 -64 275
-85 69 -21 222 -68 340 -104 118 -37 260 -80 315 -97 229 -70 364 -112 435
-134 41 -13 100 -31 132 -40 l56 -16 219 112 c120 61 313 160 428 219 255 130
591 302 940 480 143 73 332 170 420 215 175 90 395 203 900 460 182 93 342
178 357 189 36 28 68 93 68 139 0 102 -85 187 -186 187 -37 0 -117 -38 -579
-275 -99 -51 -319 -163 -490 -250 -170 -87 -389 -198 -485 -247 -96 -50 -294
-151 -440 -225 -146 -74 -355 -181 -465 -238 -110 -56 -312 -160 -450 -230
-137 -70 -254 -131 -260 -135 -5 -4 -59 8 -120 27 -60 19 -153 47 -205 63 -52
16 -250 76 -440 135 -190 59 -349 108 -355 109 -5 2 -17 6 -25 9 -8 3 -24 7
-35 10 -22 6 -187 56 -440 135 -88 28 -286 89 -440 137 -853 264 -1126 355
-1157 385 -93 94 -67 390 43 496 l29 27 82 -25 c46 -15 198 -63 338 -108 140
-44 262 -83 270 -85 13 -3 415 -128 595 -185 92 -29 865 -267 995 -306 63 -19
178 -55 255 -79 179 -56 475 -145 496 -150 9 -2 38 -10 63 -19 26 -9 56 -16
67 -16 12 0 98 40 192 89 95 48 312 159 482 246 171 87 387 197 480 245 94 48
296 152 450 230 154 78 370 189 480 245 295 151 637 326 920 470 138 70 258
135 269 144 60 53 83 148 51 212 -38 74 -92 109 -172 109 -45 0 -102 -28 -908
-440 -115 -59 -349 -178 -520 -265 -170 -87 -391 -199 -490 -250 -99 -51 -292
-150 -430 -220 -137 -70 -351 -179 -475 -243 -124 -63 -234 -120 -245 -125
-11 -6 -27 -14 -35 -18 -73 -41 -78 -41 -179 -10 -53 16 -150 46 -216 66 -233
71 -372 114 -585 180 -118 36 -267 82 -330 101 -63 20 -180 56 -260 80 -80 25
-201 63 -270 84 -802 249 -1296 406 -1385 441 -32 12 -58 31 -71 52 -75 113
-47 367 51 469 l35 36 63 -20 c194 -62 793 -251 1047 -329 124 -39 488 -151
810 -250 322 -100 635 -196 695 -215 61 -19 117 -36 126 -39 9 -2 77 -22 150
-45 74 -23 165 -51 203 -63 l69 -21 201 102 c364 185 1067 544 1511 772 94 48
296 152 450 230 154 78 352 180 440 225 88 45 257 132 375 193 118 61 235 121
259 134 59 31 95 87 97 151 3 65 -10 98 -51 138 -40 40 -89 58 -141 54 -41 -3
-299 -132 -1289 -640 -99 -51 -328 -168 -510 -260 -181 -92 -393 -200 -470
-240 -77 -40 -293 -150 -480 -245 -187 -95 -356 -181 -375 -192 -19 -10 -44
-18 -55 -18 -15 0 -718 212 -929 280 -48 15 -200 62 -211 64 -10 3 -120 36
-360 111 -77 24 -302 94 -500 155 -826 256 -1165 367 -1189 388 -81 71 -70
321 19 437 l26 35 87 -5 c95 -5 119 -8 214 -26 35 -6 77 -13 93 -16 50 -8 319
-71 510 -119 99 -25 187 -47 195 -49 8 -2 49 -13 90 -25 41 -12 107 -30 145
-40 39 -10 104 -28 145 -40 41 -12 98 -28 125 -35 164 -43 917 -273 1370 -420
77 -24 152 -45 166 -45 14 0 40 -5 57 -11 35 -12 -118 -87 1457 716 143 73
427 217 630 320 204 103 456 232 560 285 105 53 295 151 423 216 175 89 229
121 215 126 -14 6 -698 190 -753 203 -39 9 -899 237 -926 246 -17 5 -40 11
-50 13 -10 2 -73 18 -139 36 -66 18 -167 45 -225 60 -58 15 -177 46 -265 70
-232 61 -347 91 -550 145 -99 25 -220 58 -270 71 -49 13 -92 24 -95 24 -3 0
-149 -58 -325 -129z m70 -1625 c258 -71 600 -169 603 -171 3 -3 -86 -47 -307
-152 l-84 -40 -81 24 c-323 95 -473 138 -551 160 -49 13 -94 28 -98 33 -7 7
13 17 108 56 17 6 89 37 160 67 72 31 137 54 145 52 8 -2 56 -15 105 -29z"/>
</g>
</svg>
