<svg id="SvgjsSvg1001" width="288" height="288" xmlns="http://www.w3.org/2000/svg" version="1.1" xmlns:xlink="http://www.w3.org/1999/xlink" xmlns:svgjs="http://svgjs.com/svgjs"><defs id="SvgjsDefs1002"></defs><g id="SvgjsG1008"><svg xmlns="http://www.w3.org/2000/svg" width="288" height="288" version="1.0" viewBox="0 0 2365 1853"><path d="M6812 16248 c-3449 -1397 -5628 -2284 -5620 -2289 7 -4 10 -9 8 -11-3 -2 -53 -27 -111 -56 -195 -98 -396 -271 -547 -470 -271 -356 -451 -854
-503 -1387 -15 -152 -6 -505 16 -640 62 -387 205 -722 417 -975 l54 -65 -74
-110 c-156 -232 -310 -598 -377 -900 -57 -258 -69 -368 -69 -665 -1 -175 4
-308 12 -365 66 -456 212 -817 450 -1107 31 -39 56 -73 55 -76 -1 -4 -36 -58
-77 -121 -215 -323 -355 -711 -422 -1166 -23 -152 -26 -610 -6 -755 41 -286
115 -534 227 -757 98 -193 182 -311 330 -458 188 -188 358 -293 640 -393 796
-283 4905 -1566 10180 -3177 462 -141 874 -267 915 -280 l75 -23 170 88 c94
48 2551 1304 5460 2790 2910 1486 5314 2716 5343 2733 86 51 188 166 232 261
49 106 60 155 60 268 0 178 -57 316 -179 438 -124 122 -268 183 -436 184 -126
0 -195 -21 -385 -118 -91 -46 -2465 -1258 -5276 -2694 l-5110 -2611 -345 105
c-6042 1848 -10175 3140 -10379 3244 -158 81 -263 309 -290 630 -30 351 66
751 243 1015 43 64 179 205 198 205 6 0 162 -49 347 -109 1310 -425 5093
-1600 9202 -2856 927 -284 1140 -346 1160 -338 25 9 10541 5380 10840 5536
136 71 164 90 231 157 83 83 136 176 164 285 19 75 19 233 0 305 -37 141 -141
285 -263 366 -31 21 -95 51 -142 68 -76 27 -97 30 -200 30 -96 0 -126 -4 -185
-25 -52 -18 -9611 -4893 -10440 -5324 l-140 -73 -700 215 c-6364 1948 -9830
3035 -10039 3146 -233 124 -344 624 -245 1106 39 192 116 383 215 532 48 72
175 199 200 199 8 0 118 -33 242 -74 1206 -395 4974 -1565 9377 -2912 l1070
-327 155 80 c85 45 2549 1304 5475 2798 3063 1565 5348 2737 5385 2764 114 82
201 211 236 350 23 92 16 263 -15 351 -65 185 -217 333 -406 393 -99 31 -282
31 -371 0 -33 -12 -2418 -1227 -5300 -2699 -2881 -1473 -5250 -2682 -5264
-2687 -20 -7 -228 53 -1125 328 -5759 1764 -9357 2891 -9613 3010 -223 104
-319 479 -241 944 43 253 171 543 294 661 l36 35 172 -1 c479 -3 1349 -169
2802 -534 1960 -493 4742 -1314 7210 -2127 275 -91 295 -96 390 -100 82 -3
120 -10 212 -41 l112 -37 198 102 c321 164 10637 5415 10763 5478 94 48 111
59 95 66 -27 11 -11073 2937 -11111 2943 -22 4 -1318 -517 -5662 -2276z m5633
-3884 c660 -184 1208 -338 1217 -342 12 -5 -186 -103 -661 -329 l-678 -322
-1266 367 c-697 201 -1264 369 -1259 374 4 4 320 140 702 302 493 209 702 293
720 289 14 -2 565 -155 1225 -339z" transform="matrix(.1 0 0 -.1 0 1853)" fill="#00adb5" class="color000 svgShape"></path></svg></g></svg>